<?xml version="1.0" encoding="utf-8"?>
<!-- Generator: Adobe Illustrator 19.0.1, SVG Export Plug-In . SVG Version: 6.00 Build 0)  -->
<svg version="1.1" id="Layer_1" xmlns="http://www.w3.org/2000/svg" xmlns:xlink="http://www.w3.org/1999/xlink" x="0px" y="0px"
	 viewBox="0 0 612 602" style="enable-background:new 0 0 612 602;" xml:space="preserve">
<style type="text/css">
	.st0{fill:#1A1A1A;}
</style>
<g>
	<path class="st0" d="M81.3,22.2c9.9,0,19.5,2.5,28.9,7.6c9.4,5.1,16.7,12.3,22.1,21.8c5.3,9.4,8,19.3,8,29.6
		c0,10.2-2.6,19.9-7.8,29.3c-5.2,9.3-12.4,16.6-21.8,21.8c-9.4,5.2-19.2,7.8-29.4,7.8c-10.1,0-19.9-2.6-29.3-7.8
		c-9.4-5.2-16.6-12.4-21.8-21.8c-5.2-9.3-7.8-19.1-7.8-29.3c0-10.3,2.6-20.2,7.9-29.6c5.3-9.4,12.6-16.7,22-21.8
		S71.4,22.2,81.3,22.2z M81.3,26.3c-9.2,0-18.2,2.4-26.9,7.1S38.9,44.8,34,53.6c-4.9,8.8-7.4,18-7.4,27.6c0,9.5,2.4,18.5,7.2,27.2
		c4.8,8.7,11.6,15.5,20.3,20.3c8.7,4.8,17.8,7.2,27.2,7.2c9.5,0,18.7-2.4,27.4-7.2c8.7-4.8,15.5-11.6,20.3-20.3
		c4.8-8.7,7.2-17.8,7.2-27.2c0-9.6-2.5-18.8-7.5-27.6c-5-8.8-11.8-15.6-20.6-20.3C99.5,28.6,90.5,26.3,81.3,26.3z M72.9,71.8
		l33.9-6.8v29.6c-3.1-1.4-6.7-1.2-10.8,0.7c-2.9,1.6-4.7,3.5-5.6,5.8c-0.9,2.2-0.7,4.3,0.4,6.1c1.2,1.8,3.1,2.9,5.7,3.4
		c2.6,0.5,5.4,0,8.4-1.5c4.1-2.4,6.2-5.3,6.2-8.5V64.2V51.4v-4.2l-42.4,8.5v16.9v26.3c-3.1-1.4-6.8-1.2-10.9,0.7
		c-2.9,1.6-4.7,3.5-5.6,5.7c-0.9,2.2-0.7,4.3,0.4,6.1c1.2,1.8,3,2.9,5.7,3.4c2.6,0.5,5.4,0,8.4-1.5c4.1-2.4,6.2-5.2,6.1-8.5V71.8z"
		/>
	<path class="st0" d="M230.9,22.2c9.9,0,19.5,2.5,28.9,7.6c9.4,5.1,16.7,12.3,22.1,21.8c5.3,9.4,8,19.3,8,29.6
		c0,10.2-2.6,19.9-7.8,29.3c-5.2,9.3-12.4,16.6-21.8,21.8c-9.4,5.2-19.2,7.8-29.4,7.8c-10.1,0-19.9-2.6-29.3-7.8
		c-9.4-5.2-16.6-12.4-21.8-21.8c-5.2-9.3-7.8-19.1-7.8-29.3c0-10.3,2.6-20.2,7.9-29.6c5.3-9.4,12.6-16.7,22-21.8
		S221,22.2,230.9,22.2z M230.9,26.3c-9.2,0-18.2,2.4-26.9,7.1s-15.5,11.5-20.5,20.3c-4.9,8.8-7.4,18-7.4,27.6
		c0,9.5,2.4,18.5,7.2,27.2c4.8,8.7,11.6,15.5,20.3,20.3c8.7,4.8,17.8,7.2,27.2,7.2c9.5,0,18.7-2.4,27.4-7.2
		c8.7-4.8,15.5-11.6,20.3-20.3c4.8-8.7,7.2-17.8,7.2-27.2c0-9.6-2.5-18.8-7.5-27.6c-5-8.8-11.8-15.6-20.6-20.3
		C249.1,28.6,240.2,26.3,230.9,26.3z M202.7,113.9l56.7-32.8l-56.7-32.7V113.9z"/>
	<path class="st0" d="M380.7,22.2c9.9,0,19.5,2.5,28.9,7.6c9.4,5.1,16.7,12.3,22.1,21.8c5.3,9.4,8,19.3,8,29.6
		c0,10.2-2.6,19.9-7.8,29.3c-5.2,9.3-12.4,16.6-21.8,21.8c-9.4,5.2-19.2,7.8-29.4,7.8c-10.1,0-19.9-2.6-29.3-7.8
		c-9.4-5.2-16.6-12.4-21.8-21.8c-5.2-9.3-7.8-19.1-7.8-29.3c0-10.3,2.6-20.2,7.9-29.6c5.3-9.4,12.6-16.7,22-21.8
		C361.1,24.7,370.8,22.2,380.7,22.2z M380.7,26.3c-9.2,0-18.2,2.4-26.9,7.1s-15.5,11.5-20.5,20.3c-4.9,8.8-7.4,18-7.4,27.6
		c0,9.5,2.4,18.5,7.2,27.2c4.8,8.7,11.6,15.5,20.3,20.3c8.7,4.8,17.8,7.2,27.2,7.2c9.5,0,18.7-2.4,27.4-7.2
		c8.7-4.8,15.5-11.6,20.3-20.3c4.8-8.7,7.2-17.8,7.2-27.2c0-9.6-2.5-18.8-7.5-27.6c-5-8.8-11.8-15.6-20.6-20.3
		C398.9,28.6,389.9,26.3,380.7,26.3z M375.2,47h-23v67.3h23V47z M409.2,47h-23v67.3h23V47z"/>
	<path class="st0" d="M530.4,22.2c9.9,0,19.5,2.5,28.9,7.6c9.4,5.1,16.7,12.3,22.1,21.8c5.3,9.4,8,19.3,8,29.6
		c0,10.2-2.6,19.9-7.8,29.3c-5.2,9.3-12.4,16.6-21.8,21.8c-9.4,5.2-19.2,7.8-29.4,7.8c-10.1,0-19.9-2.6-29.3-7.8
		c-9.4-5.2-16.6-12.4-21.8-21.8c-5.2-9.3-7.8-19.1-7.8-29.3c0-10.3,2.6-20.2,7.9-29.6c5.3-9.4,12.6-16.7,22-21.8
		C510.8,24.7,520.5,22.2,530.4,22.2z M530.4,26.3c-9.2,0-18.2,2.4-26.9,7.1C494.8,38,488,44.8,483,53.6c-4.9,8.8-7.4,18-7.4,27.6
		c0,9.5,2.4,18.5,7.2,27.2c4.8,8.7,11.6,15.5,20.3,20.3c8.7,4.8,17.8,7.2,27.2,7.2c9.5,0,18.7-2.4,27.4-7.2
		c8.7-4.8,15.5-11.6,20.3-20.3c4.8-8.7,7.2-17.8,7.2-27.2c0-9.6-2.5-18.8-7.5-27.6c-5-8.8-11.8-15.6-20.6-20.3
		C548.6,28.6,539.6,26.3,530.4,26.3z M530.7,81.1l-38.7-28.8v57.6L530.7,81.1v28.8l38.7-28.8l-38.7-28.8V81.1z"/>
	<path class="st0" d="M81.3,168.8c9.9,0,19.5,2.5,28.9,7.6c9.4,5.1,16.7,12.3,22.1,21.8c5.3,9.4,8,19.3,8,29.6
		c0,10.2-2.6,19.9-7.8,29.3c-5.2,9.3-12.4,16.6-21.8,21.8c-9.4,5.2-19.2,7.8-29.4,7.8c-10.1,0-19.9-2.6-29.3-7.8
		c-9.4-5.2-16.6-12.4-21.8-21.8c-5.2-9.3-7.8-19.1-7.8-29.3c0-10.3,2.6-20.2,7.9-29.6c5.3-9.4,12.6-16.7,22-21.8
		C61.8,171.3,71.4,168.8,81.3,168.8z M81.3,172.9c-9.2,0-18.2,2.4-26.9,7.1S38.9,191.4,34,200.2c-4.9,8.8-7.4,18-7.4,27.6
		c0,9.5,2.4,18.5,7.2,27.2c4.8,8.7,11.6,15.5,20.3,20.3c8.7,4.8,17.8,7.2,27.2,7.2c9.5,0,18.7-2.4,27.4-7.2
		c8.7-4.8,15.5-11.6,20.3-20.3c4.8-8.7,7.2-17.8,7.2-27.2c0-9.6-2.5-18.8-7.5-27.6c-5-8.8-11.8-15.6-20.6-20.3
		C99.5,175.2,90.5,172.9,81.3,172.9z M81.3,198.3l-38.8,28.9l38.8,28.9v-28.9l38.8,28.9v-57.8l-38.8,28.9V198.3z"/>
	<path class="st0" d="M231,168.8c9.9,0,19.5,2.5,28.9,7.6c9.4,5.1,16.7,12.3,22.1,21.8c5.3,9.4,8,19.3,8,29.6
		c0,10.2-2.6,19.9-7.8,29.3c-5.2,9.3-12.4,16.6-21.8,21.8c-9.4,5.2-19.2,7.8-29.4,7.8c-10.1,0-19.9-2.6-29.3-7.8
		c-9.4-5.2-16.6-12.4-21.8-21.8c-5.2-9.3-7.8-19.1-7.8-29.3c0-10.3,2.6-20.2,7.9-29.6c5.3-9.4,12.6-16.7,22-21.8
		C211.5,171.3,221.1,168.8,231,168.8z M231,172.9c-9.2,0-18.2,2.4-26.9,7.1c-8.7,4.7-15.5,11.5-20.5,20.3c-4.9,8.8-7.4,18-7.4,27.6
		c0,9.5,2.4,18.5,7.2,27.2c4.8,8.7,11.6,15.5,20.3,20.3c8.7,4.8,17.8,7.2,27.2,7.2c9.5,0,18.7-2.4,27.4-7.2
		c8.7-4.8,15.5-11.6,20.3-20.3c4.8-8.7,7.2-17.8,7.2-27.2c0-9.6-2.5-18.8-7.5-27.6c-5-8.8-11.8-15.6-20.6-20.3
		C249.2,175.2,240.3,172.9,231,172.9z M204.3,203.1h-11.8v48.1h11.8V203.1z M237.4,203.1l-32.6,24l32.6,24v-24l32.6,24v-48.1
		l-32.6,24V203.1z"/>
	<path class="st0" d="M380.8,168.8c9.9,0,19.5,2.5,28.9,7.6c9.4,5.1,16.7,12.3,22.1,21.8c5.3,9.4,8,19.3,8,29.6
		c0,10.2-2.6,19.9-7.8,29.3c-5.2,9.3-12.4,16.6-21.8,21.8c-9.4,5.2-19.2,7.8-29.4,7.8c-10.1,0-19.9-2.6-29.3-7.8
		c-9.4-5.2-16.6-12.4-21.8-21.8c-5.2-9.3-7.8-19.1-7.8-29.3c0-10.3,2.6-20.2,7.9-29.6c5.3-9.4,12.6-16.7,22-21.8
		C361.2,171.3,370.9,168.8,380.8,168.8z M380.8,172.9c-9.2,0-18.2,2.4-26.9,7.1c-8.7,4.7-15.5,11.5-20.5,20.3
		c-4.9,8.8-7.4,18-7.4,27.6c0,9.5,2.4,18.5,7.2,27.2c4.8,8.7,11.6,15.5,20.3,20.3c8.7,4.8,17.8,7.2,27.2,7.2
		c9.5,0,18.7-2.4,27.4-7.2c8.7-4.8,15.5-11.6,20.3-20.3c4.8-8.7,7.2-17.8,7.2-27.2c0-9.6-2.5-18.8-7.5-27.6
		c-5-8.8-11.8-15.6-20.6-20.3C399,175.2,390,172.9,380.8,172.9z M374.7,227.1l-32.6-24v48.1L374.7,227.1v24l32.7-24l-32.7-24V227.1z
		 M419.8,203.1H408v48.1h11.8V203.1z"/>
	<path class="st0" d="M530.5,168.8c9.9,0,19.5,2.5,28.9,7.6c9.4,5.1,16.7,12.3,22.1,21.8c5.3,9.4,8,19.3,8,29.6
		c0,10.2-2.6,19.9-7.8,29.3c-5.2,9.3-12.4,16.6-21.8,21.8c-9.4,5.2-19.2,7.8-29.4,7.8c-10.1,0-19.9-2.6-29.3-7.8
		c-9.4-5.2-16.6-12.4-21.8-21.8c-5.2-9.3-7.8-19.1-7.8-29.3c0-10.3,2.6-20.2,7.9-29.6c5.3-9.4,12.6-16.7,22-21.8
		C511,171.3,520.6,168.8,530.5,168.8z M530.5,172.9c-9.2,0-18.2,2.4-26.9,7.1s-15.5,11.5-20.5,20.3c-4.9,8.8-7.4,18-7.4,27.6
		c0,9.5,2.4,18.5,7.2,27.2c4.8,8.7,11.6,15.5,20.3,20.3c8.7,4.8,17.8,7.2,27.2,7.2c9.5,0,18.7-2.4,27.4-7.2
		c8.7-4.8,15.5-11.6,20.3-20.3c4.8-8.7,7.2-17.8,7.2-27.2c0-9.6-2.5-18.8-7.5-27.6c-5-8.8-11.8-15.6-20.6-20.3
		C548.7,175.2,539.7,172.9,530.5,172.9z M558.6,199.7h-56v56h56V199.7z"/>
	<path class="st0" d="M81.3,315.4c9.9,0,19.5,2.5,28.9,7.6c9.4,5.1,16.7,12.3,22.1,21.8c5.3,9.4,8,19.3,8,29.6
		c0,10.2-2.6,19.9-7.8,29.3c-5.2,9.3-12.4,16.6-21.8,21.8s-19.2,7.8-29.4,7.8c-10.1,0-19.9-2.6-29.3-7.8S35.4,413,30.3,403.7
		c-5.2-9.3-7.8-19.1-7.8-29.3c0-10.3,2.6-20.2,7.9-29.6c5.3-9.4,12.6-16.7,22-21.8C61.8,318,71.4,315.4,81.3,315.4z M81.3,319.5
		c-9.2,0-18.2,2.4-26.9,7.1S38.9,338,34,346.8c-4.9,8.8-7.4,18-7.4,27.6c0,9.5,2.4,18.5,7.2,27.2c4.8,8.7,11.6,15.5,20.3,20.3
		c8.7,4.8,17.8,7.2,27.2,7.2c9.5,0,18.7-2.4,27.4-7.2c8.7-4.8,15.5-11.6,20.3-20.3c4.8-8.7,7.2-17.8,7.2-27.2
		c0-9.6-2.5-18.8-7.5-27.6c-5-8.8-11.8-15.6-20.6-20.3C99.5,321.8,90.5,319.5,81.3,319.5z M47.4,382.3h67.5l-33.7-37.3L47.4,382.3z
		 M47.4,389.3v12.8h67.5v-12.8H47.4z"/>
	<path class="st0" d="M231,315.4c9.9,0,19.5,2.5,28.9,7.6c9.4,5.1,16.7,12.3,22.1,21.8c5.3,9.4,8,19.3,8,29.6
		c0,10.2-2.6,19.9-7.8,29.3c-5.2,9.3-12.4,16.6-21.8,21.8c-9.4,5.2-19.2,7.8-29.4,7.8c-10.1,0-19.9-2.6-29.3-7.8
		S185.2,413,180,403.7c-5.2-9.3-7.8-19.1-7.8-29.3c0-10.3,2.6-20.2,7.9-29.6c5.3-9.4,12.6-16.7,22-21.8
		C211.5,318,221.1,315.4,231,315.4z M231,319.5c-9.2,0-18.2,2.4-26.9,7.1c-8.7,4.7-15.5,11.5-20.5,20.3c-4.9,8.8-7.4,18-7.4,27.6
		c0,9.5,2.4,18.5,7.2,27.2c4.8,8.7,11.6,15.5,20.3,20.3c8.7,4.8,17.8,7.2,27.2,7.2c9.5,0,18.7-2.4,27.4-7.2
		c8.7-4.8,15.5-11.6,20.3-20.3c4.8-8.7,7.2-17.8,7.2-27.2c0-9.6-2.5-18.8-7.5-27.6c-5-8.8-11.8-15.6-20.6-20.3
		C249.2,321.8,240.3,319.5,231,319.5z M231.2,343.9c-8.4,0-15.6,3-21.5,8.9c-5.9,5.9-8.9,13.1-8.9,21.4c0,8.4,3,15.6,8.9,21.5
		c5.9,5.9,13.1,8.9,21.5,8.9c8.4,0,15.5-3,21.4-8.9c5.9-5.9,8.9-13.1,8.9-21.5c0-8.4-3-15.5-8.9-21.4
		C246.7,346.9,239.5,343.9,231.2,343.9z"/>
	<path class="st0" d="M380.8,315.4c9.9,0,19.5,2.5,28.9,7.6c9.4,5.1,16.7,12.3,22.1,21.8c5.3,9.4,8,19.3,8,29.6
		c0,10.2-2.6,19.9-7.8,29.3c-5.2,9.3-12.4,16.6-21.8,21.8c-9.4,5.2-19.2,7.8-29.4,7.8c-10.1,0-19.9-2.6-29.3-7.8
		c-9.4-5.2-16.6-12.4-21.8-21.8c-5.2-9.3-7.8-19.1-7.8-29.3c0-10.3,2.6-20.2,7.9-29.6c5.3-9.4,12.6-16.7,22-21.8
		C361.2,318,370.9,315.4,380.8,315.4z M380.8,319.5c-9.2,0-18.2,2.4-26.9,7.1c-8.7,4.7-15.5,11.5-20.5,20.3
		c-4.9,8.8-7.4,18-7.4,27.6c0,9.5,2.4,18.5,7.2,27.2c4.8,8.7,11.6,15.5,20.3,20.3c8.7,4.8,17.8,7.2,27.2,7.2
		c9.5,0,18.7-2.4,27.4-7.2c8.7-4.8,15.5-11.6,20.3-20.3c4.8-8.7,7.2-17.8,7.2-27.2c0-9.6-2.5-18.8-7.5-27.6
		c-5-8.8-11.8-15.6-20.6-20.3C399,321.8,390,319.5,380.8,319.5z M396.6,407.8c0-1.2-1.6-2.2-4.7-3.1c-2.7-0.8-5.9-1.2-9.5-1.3v-9.2
		c2.8-0.2,5.4-1,7.8-2.4c2.7-1.7,4.9-3.9,6.6-6.6c1.6-2.7,2.4-5.8,2.4-9.1v-18.2h-3v17.8c0,2.8-0.7,5.3-2.1,7.6
		c-1.4,2.3-3.2,4.1-5.5,5.5c-2.3,1.4-4.8,2.1-7.7,2.1c-2.8,0-5.3-0.7-7.6-2.1c-2.3-1.4-4.1-3.2-5.5-5.5c-1.4-2.3-2-4.8-2-7.6v-17.8
		h-3V376c0,3.3,0.8,6.4,2.4,9.1c1.6,2.7,3.8,5,6.6,6.6c2.1,1.2,4.3,2,6.7,2.3v9.3c-3.7,0.1-6.9,0.6-9.6,1.3
		c-3.1,0.9-4.7,1.9-4.7,3.1c0,0.2,0,0.5,0.1,0.7c-0.1,0.2-0.1,0.5-0.1,0.7c0,1.2,1.6,2.3,4.7,3.1c3.2,0.9,7,1.3,11.5,1.3
		c4.5,0,8.3-0.4,11.4-1.3c3.2-0.9,4.7-1.9,4.7-3.1c0-0.2,0-0.4-0.1-0.7C396.6,408.3,396.6,408.1,396.6,407.8z M381,388.7
		c2.5,0,4.7-0.6,6.7-1.8s3.6-2.8,4.8-4.8s1.8-4.3,1.8-6.7v-26.8c0-2.5-0.6-4.7-1.8-6.7c-1.2-2-2.8-3.6-4.8-4.9
		c-2-1.2-4.3-1.8-6.7-1.8c-2.5,0-4.7,0.6-6.7,1.8c-2,1.2-3.6,2.9-4.8,4.9c-1.2,2-1.8,4.2-1.8,6.7v26.8c0,2.5,0.6,4.7,1.8,6.7
		c1.2,2,2.8,3.6,4.8,4.8C376.3,388.1,378.5,388.7,381,388.7z"/>
	<path class="st0" d="M530.5,315.4c9.9,0,19.5,2.5,28.9,7.6c9.4,5.1,16.7,12.3,22.1,21.8c5.3,9.4,8,19.3,8,29.6
		c0,10.2-2.6,19.9-7.8,29.3c-5.2,9.3-12.4,16.6-21.8,21.8s-19.2,7.8-29.4,7.8c-10.1,0-19.9-2.6-29.3-7.8
		c-9.4-5.2-16.6-12.4-21.8-21.8c-5.2-9.3-7.8-19.1-7.8-29.3c0-10.3,2.6-20.2,7.9-29.6c5.3-9.4,12.6-16.7,22-21.8
		C511,318,520.6,315.4,530.5,315.4z M530.5,319.5c-9.2,0-18.2,2.4-26.9,7.1s-15.5,11.5-20.5,20.3c-4.9,8.8-7.4,18-7.4,27.6
		c0,9.5,2.4,18.5,7.2,27.2c4.8,8.7,11.6,15.5,20.3,20.3c8.7,4.8,17.8,7.2,27.2,7.2c9.5,0,18.7-2.4,27.4-7.2
		c8.7-4.8,15.5-11.6,20.3-20.3c4.8-8.7,7.2-17.8,7.2-27.2c0-9.6-2.5-18.8-7.5-27.6c-5-8.8-11.8-15.6-20.6-20.3
		C548.7,321.8,539.7,319.5,530.5,319.5z M494.8,386.3c0,2.1,0.3,4.1,1,6c0.7,1.9,1.7,3.5,3,5c1.3,1.5,2.8,2.7,4.5,3.7v-29.5
		c-1.7,1-3.2,2.2-4.5,3.8c-1.3,1.5-2.3,3.2-3,5.1C495.1,382.3,494.8,384.3,494.8,386.3z M530.5,344.1c-5.9,0-12,1.7-18.2,5.1
		c-1.1,0.6-2.1,1.3-3.1,2.2c-1,0.9-1.9,1.9-2.7,3.1c-0.8,1.1-1.5,2.3-2,3.6c-0.5,1.3-0.7,2.6-0.7,4v39h4.7v-39c0-1,0.2-1.9,0.7-3
		c0.5-1,1.1-2,1.9-2.9c0.8-0.9,1.7-1.8,2.7-2.5c1-0.8,2-1.3,3-1.7c3.4-1.4,6.6-2.4,9.5-2.9c2.9-0.5,5.8-0.5,8.6,0
		c2.9,0.5,6,1.4,9.4,2.9c1,0.4,2,1,3,1.7c1,0.8,1.9,1.6,2.7,2.5c0.8,0.9,1.5,1.9,2,2.9c0.5,1,0.7,2,0.7,3v39h4.7v-39
		c0-1.4-0.2-2.7-0.7-4c-0.5-1.3-1.1-2.5-2-3.6c-0.8-1.1-1.8-2.2-2.8-3.1c-1-0.9-2.1-1.6-3.1-2.2
		C542.5,345.8,536.4,344.1,530.5,344.1z M513.3,369.1h-2.7c-0.5,0-0.9,0.2-1.3,0.5c-0.3,0.4-0.5,0.8-0.5,1.3v30.9
		c0,0.5,0.2,1,0.5,1.3c0.3,0.4,0.8,0.5,1.3,0.5h2.7c0.5,0,0.9-0.2,1.3-0.5s0.5-0.8,0.5-1.3v-30.9c0-0.5-0.2-0.9-0.5-1.3
		S513.7,369.1,513.3,369.1z M550.4,369.1h-2.6c-0.5,0-1,0.2-1.3,0.5c-0.4,0.4-0.5,0.8-0.5,1.3v30.9c0,0.5,0.2,1,0.5,1.3
		c0.4,0.4,0.8,0.5,1.3,0.5h2.6c0.5,0,1-0.2,1.3-0.5s0.5-0.8,0.5-1.3v-30.9c0-0.5-0.2-0.9-0.5-1.3S550.9,369.1,550.4,369.1z
		 M557.8,371.5v29.5c1.7-1,3.2-2.2,4.5-3.7c1.3-1.5,2.3-3.2,3-5c0.7-1.9,1.1-3.9,1.1-6c0-2.1-0.4-4.1-1.1-6c-0.7-1.9-1.7-3.6-3-5.1
		C561,373.8,559.5,372.5,557.8,371.5z"/>
	<path class="st0" d="M81.3,462c9.9,0,19.5,2.5,28.9,7.6c9.4,5.1,16.7,12.3,22.1,21.8c5.3,9.4,8,19.3,8,29.6
		c0,10.2-2.6,19.9-7.8,29.3c-5.2,9.3-12.4,16.6-21.8,21.8c-9.4,5.2-19.2,7.8-29.4,7.8c-10.1,0-19.9-2.6-29.3-7.8
		c-9.4-5.2-16.6-12.4-21.8-21.8c-5.2-9.3-7.8-19.1-7.8-29.3c0-10.3,2.6-20.2,7.9-29.6c5.3-9.4,12.6-16.7,22-21.8
		C61.8,464.6,71.4,462,81.3,462z M81.3,466.1c-9.2,0-18.2,2.4-26.9,7.1c-8.7,4.7-15.5,11.5-20.5,20.3c-4.9,8.8-7.4,18-7.4,27.6
		c0,9.5,2.4,18.5,7.2,27.2c4.8,8.7,11.6,15.5,20.3,20.3c8.7,4.8,17.8,7.2,27.2,7.2c9.5,0,18.7-2.4,27.4-7.2
		c8.7-4.8,15.5-11.6,20.3-20.3c4.8-8.7,7.2-17.8,7.2-27.2c0-9.6-2.5-18.8-7.5-27.6c-5-8.8-11.8-15.6-20.6-20.3
		C99.5,468.4,90.5,466.1,81.3,466.1z M91.8,483.5l-22.8,23l-23.4,0.1l0.2,28.2l22.7,0.2L91.8,558L91.8,483.5z M95.3,510.2
		c1.8,0.6,3.3,1.8,4.4,3.6c1.1,1.8,1.7,4,1.8,6.6c0,2.5-0.5,4.8-1.5,6.7c-1,1.9-2.4,3.3-4.2,4.1l0.8,4.2c2.8-1,5-2.9,6.7-5.6
		c1.6-2.7,2.5-5.9,2.4-9.5c-0.2-3.6-1.1-6.7-2.9-9.3c-1.8-2.6-4.1-4.3-6.9-5L95.3,510.2z M96.9,498c4.7,1,8.5,3.5,11.4,7.5
		c2.9,4,4.5,8.7,4.7,14.2c0,5.5-1.4,10.3-4.2,14.4c-2.8,4.1-6.5,6.8-11.1,8l0.7,4.1c5.6-1.4,10.2-4.6,13.6-9.5
		c3.4-4.9,5.1-10.6,5.1-17.1c-0.2-6.6-2.2-12.2-5.8-16.9c-3.6-4.7-8.2-7.6-13.9-8.8L96.9,498z"/>
	<path class="st0" d="M231,462c9.9,0,19.5,2.5,28.9,7.6c9.4,5.1,16.7,12.3,22.1,21.8c5.3,9.4,8,19.3,8,29.6
		c0,10.2-2.6,19.9-7.8,29.3c-5.2,9.3-12.4,16.6-21.8,21.8c-9.4,5.2-19.2,7.8-29.4,7.8c-10.1,0-19.9-2.6-29.3-7.8
		c-9.4-5.2-16.6-12.4-21.8-21.8c-5.2-9.3-7.8-19.1-7.8-29.3c0-10.3,2.6-20.2,7.9-29.6c5.3-9.4,12.6-16.7,22-21.8
		C211.5,464.6,221.1,462,231,462z M231,466.1c-9.2,0-18.2,2.4-26.9,7.1c-8.7,4.7-15.5,11.5-20.5,20.3c-4.9,8.8-7.4,18-7.4,27.6
		c0,9.5,2.4,18.5,7.2,27.2c4.8,8.7,11.6,15.5,20.3,20.3c8.7,4.8,17.8,7.2,27.2,7.2c9.5,0,18.7-2.4,27.4-7.2
		c8.7-4.8,15.5-11.6,20.3-20.3c4.8-8.7,7.2-17.8,7.2-27.2c0-9.6-2.5-18.8-7.5-27.6c-5-8.8-11.8-15.6-20.6-20.3
		C249.2,468.4,240.3,466.1,231,466.1z M196.6,537.3c-0.4,0-0.7,0.1-0.9,0.4c-0.3,0.3-0.4,0.6-0.4,0.9v6.8c0,0.4,0.1,0.7,0.4,1
		c0.3,0.3,0.6,0.4,0.9,0.4h10.6c0.4,0,0.7-0.1,1-0.4c0.3-0.3,0.4-0.6,0.4-1v-6.8c0-0.4-0.1-0.7-0.4-0.9c-0.3-0.3-0.6-0.4-1-0.4
		H196.6z M211.2,515.7c-0.4,0-0.7,0.1-1,0.4c-0.3,0.3-0.4,0.6-0.4,1v6.8c0,0.4,0.1,0.7,0.4,0.9c0.3,0.3,0.6,0.4,1,0.4h10.6
		c0.4,0,0.7-0.1,1-0.4c0.3-0.3,0.4-0.6,0.4-0.9v-6.8c0-0.4-0.1-0.7-0.4-1c-0.3-0.3-0.6-0.4-1-0.4H211.2z M211.2,526.5
		c-0.4,0-0.7,0.1-1,0.4c-0.3,0.3-0.4,0.6-0.4,1v6.7c0,0.4,0.1,0.7,0.4,1c0.3,0.3,0.6,0.4,1,0.4h10.6c0.4,0,0.7-0.1,1-0.4
		c0.3-0.3,0.4-0.6,0.4-1v-6.7c0-0.4-0.1-0.7-0.4-1c-0.3-0.3-0.6-0.4-1-0.4H211.2z M211.2,537.3c-0.4,0-0.7,0.1-1,0.4
		c-0.3,0.3-0.4,0.6-0.4,0.9v6.8c0,0.4,0.1,0.7,0.4,1c0.3,0.3,0.6,0.4,1,0.4h10.6c0.4,0,0.7-0.1,1-0.4c0.3-0.3,0.4-0.6,0.4-1v-6.8
		c0-0.4-0.1-0.7-0.4-0.9c-0.3-0.3-0.6-0.4-1-0.4H211.2z M225.9,494.1c-0.4,0-0.7,0.1-1,0.4c-0.3,0.3-0.4,0.6-0.4,1v6.8
		c0,0.4,0.1,0.7,0.4,1c0.3,0.3,0.6,0.4,1,0.4h10.6c0.4,0,0.7-0.1,1-0.4c0.3-0.3,0.4-0.6,0.4-1v-6.8c0-0.4-0.1-0.7-0.4-1
		c-0.3-0.3-0.6-0.4-1-0.4H225.9z M225.9,504.9c-0.4,0-0.7,0.1-1,0.4c-0.3,0.3-0.4,0.6-0.4,1v6.8c0,0.4,0.1,0.7,0.4,1
		c0.3,0.3,0.6,0.4,1,0.4h10.6c0.4,0,0.7-0.1,1-0.4c0.3-0.3,0.4-0.6,0.4-1v-6.8c0-0.4-0.1-0.7-0.4-1c-0.3-0.3-0.6-0.4-1-0.4H225.9z
		 M225.9,515.7c-0.4,0-0.7,0.1-1,0.4c-0.3,0.3-0.4,0.6-0.4,1v6.8c0,0.4,0.1,0.7,0.4,0.9c0.3,0.3,0.6,0.4,1,0.4h10.6
		c0.4,0,0.7-0.1,1-0.4c0.3-0.3,0.4-0.6,0.4-0.9v-6.8c0-0.4-0.1-0.7-0.4-1c-0.3-0.3-0.6-0.4-1-0.4H225.9z M225.9,526.5
		c-0.4,0-0.7,0.1-1,0.4c-0.3,0.3-0.4,0.6-0.4,1v6.7c0,0.4,0.1,0.7,0.4,1c0.3,0.3,0.6,0.4,1,0.4h10.6c0.4,0,0.7-0.1,1-0.4
		c0.3-0.3,0.4-0.6,0.4-1v-6.7c0-0.4-0.1-0.7-0.4-1c-0.3-0.3-0.6-0.4-1-0.4H225.9z M225.9,537.3c-0.4,0-0.7,0.1-1,0.4
		c-0.3,0.3-0.4,0.6-0.4,0.9v6.8c0,0.4,0.1,0.7,0.4,1c0.3,0.3,0.6,0.4,1,0.4h10.6c0.4,0,0.7-0.1,1-0.4c0.3-0.3,0.4-0.6,0.4-1v-6.8
		c0-0.4-0.1-0.7-0.4-0.9c-0.3-0.3-0.6-0.4-1-0.4H225.9z M240.4,504.9c-0.4,0-0.7,0.1-0.9,0.4c-0.3,0.3-0.4,0.6-0.4,1v6.8
		c0,0.4,0.1,0.7,0.4,1c0.3,0.3,0.6,0.4,0.9,0.4H251c0.4,0,0.7-0.1,1-0.4c0.3-0.3,0.4-0.6,0.4-1v-6.8c0-0.4-0.1-0.7-0.4-1
		c-0.3-0.3-0.6-0.4-1-0.4H240.4z M240.4,515.7c-0.4,0-0.7,0.1-0.9,0.4c-0.3,0.3-0.4,0.6-0.4,1v6.8c0,0.4,0.1,0.7,0.4,0.9
		c0.3,0.3,0.6,0.4,0.9,0.4H251c0.4,0,0.7-0.1,1-0.4c0.3-0.3,0.4-0.6,0.4-0.9v-6.8c0-0.4-0.1-0.7-0.4-1c-0.3-0.3-0.6-0.4-1-0.4H240.4
		z M240.4,526.5c-0.4,0-0.7,0.1-0.9,0.4c-0.3,0.3-0.4,0.6-0.4,1v6.7c0,0.4,0.1,0.7,0.4,1c0.3,0.3,0.6,0.4,0.9,0.4H251
		c0.4,0,0.7-0.1,1-0.4c0.3-0.3,0.4-0.6,0.4-1v-6.7c0-0.4-0.1-0.7-0.4-1c-0.3-0.3-0.6-0.4-1-0.4H240.4z M240.4,537.3
		c-0.4,0-0.7,0.1-0.9,0.4c-0.3,0.3-0.4,0.6-0.4,0.9v6.8c0,0.4,0.1,0.7,0.4,1c0.3,0.3,0.6,0.4,0.9,0.4H251c0.4,0,0.7-0.1,1-0.4
		c0.3-0.3,0.4-0.6,0.4-1v-6.8c0-0.4-0.1-0.7-0.4-0.9c-0.3-0.3-0.6-0.4-1-0.4H240.4z M255,526.5c-0.4,0-0.7,0.1-1,0.4
		c-0.3,0.3-0.4,0.6-0.4,1v6.7c0,0.4,0.1,0.7,0.4,1c0.3,0.3,0.6,0.4,1,0.4h10.6c0.4,0,0.7-0.1,1-0.4c0.3-0.3,0.4-0.6,0.4-1v-6.7
		c0-0.4-0.1-0.7-0.4-1c-0.3-0.3-0.6-0.4-1-0.4H255z M255,537.3c-0.4,0-0.7,0.1-1,0.4c-0.3,0.3-0.4,0.6-0.4,0.9v6.8
		c0,0.4,0.1,0.7,0.4,1c0.3,0.3,0.6,0.4,1,0.4h10.6c0.4,0,0.7-0.1,1-0.4c0.3-0.3,0.4-0.6,0.4-1v-6.8c0-0.4-0.1-0.7-0.4-0.9
		c-0.3-0.3-0.6-0.4-1-0.4H255z"/>
	<path class="st0" d="M380.8,462c9.9,0,19.5,2.5,28.9,7.6c9.4,5.1,16.7,12.3,22.1,21.8c5.3,9.4,8,19.3,8,29.6
		c0,10.2-2.6,19.9-7.8,29.3c-5.2,9.3-12.4,16.6-21.8,21.8c-9.4,5.2-19.2,7.8-29.4,7.8c-10.1,0-19.9-2.6-29.3-7.8
		c-9.4-5.2-16.6-12.4-21.8-21.8c-5.2-9.3-7.8-19.1-7.8-29.3c0-10.3,2.6-20.2,7.9-29.6c5.3-9.4,12.6-16.7,22-21.8
		C361.2,464.6,370.9,462,380.8,462z M380.8,466.1c-9.2,0-18.2,2.4-26.9,7.1c-8.7,4.7-15.5,11.5-20.5,20.3c-4.9,8.8-7.4,18-7.4,27.6
		c0,9.5,2.4,18.5,7.2,27.2c4.8,8.7,11.6,15.5,20.3,20.3c8.7,4.8,17.8,7.2,27.2,7.2c9.5,0,18.7-2.4,27.4-7.2
		c8.7-4.8,15.5-11.6,20.3-20.3c4.8-8.7,7.2-17.8,7.2-27.2c0-9.6-2.5-18.8-7.5-27.6c-5-8.8-11.8-15.6-20.6-20.3
		C399,468.4,390,466.1,380.8,466.1z M357.7,495c-1.8,0.1-3.2,0.8-4.3,2.1c-5.6,7.2-8.4,14.8-8.4,23c0,8.2,2.8,15.8,8.4,23
		c6.7,7.6,14.8,11.8,24.3,12.6c9.5,0.8,18.2-1.9,26.1-8.2c7.6-6.7,11.8-14.8,12.6-24.3c0.8-9.5-1.9-18.2-8.2-26.1
		c-1.4-1.7-3.2-2.5-5.5-2.2c-2.2,0.4-3.7,1.7-4.5,3.8c-0.7,2.1-0.3,4.1,1.2,5.7c4.3,5.4,6.2,11.4,5.7,17.8
		c-0.6,6.4-3.4,11.9-8.6,16.6c-5.4,4.3-11.3,6.2-17.8,5.6c-6.4-0.6-12-3.4-16.5-8.6c-7.8-10.5-7.8-20.9,0-31.3
		c1.5-1.9,1.7-4,0.8-6.1C361.9,496.1,360.2,495,357.7,495z M380.7,485.3c-1.6,0-2.9,0.6-4,1.7c-1.1,1.2-1.7,2.5-1.7,4.1v36.7
		c0.1,2.2,1,3.9,2.9,5c1.9,1,3.8,1,5.8,0c1.8-1.2,2.8-2.8,2.8-5v-36.7c0-1.6-0.5-3-1.6-4.1C383.7,485.8,382.3,485.3,380.7,485.3z"/>
	<path class="st0" d="M530.5,462c9.9,0,19.5,2.5,28.9,7.6c9.4,5.1,16.7,12.3,22.1,21.8c5.3,9.4,8,19.3,8,29.6
		c0,10.2-2.6,19.9-7.8,29.3c-5.2,9.3-12.4,16.6-21.8,21.8c-9.4,5.2-19.2,7.8-29.4,7.8c-10.1,0-19.9-2.6-29.3-7.8
		c-9.4-5.2-16.6-12.4-21.8-21.8c-5.2-9.3-7.8-19.1-7.8-29.3c0-10.3,2.6-20.2,7.9-29.6c5.3-9.4,12.6-16.7,22-21.8
		C511,464.6,520.6,462,530.5,462z M530.5,466.1c-9.2,0-18.2,2.4-26.9,7.1c-8.7,4.7-15.5,11.5-20.5,20.3c-4.9,8.8-7.4,18-7.4,27.6
		c0,9.5,2.4,18.5,7.2,27.2c4.8,8.7,11.6,15.5,20.3,20.3c8.7,4.8,17.8,7.2,27.2,7.2c9.5,0,18.7-2.4,27.4-7.2
		c8.7-4.8,15.5-11.6,20.3-20.3c4.8-8.7,7.2-17.8,7.2-27.2c0-9.6-2.5-18.8-7.5-27.6c-5-8.8-11.8-15.6-20.6-20.3
		C548.7,468.4,539.7,466.1,530.5,466.1z M527.9,484.1l-0.4,0.4v60.7c-3-2.1-6.1-3.2-9.4-3.2H517c-7.2,0.8-10.7,3.3-10.7,7.6
		c0,5.5,4.1,8.2,12.2,8.2h2.9c7.6-1.5,11.3-4.7,11.3-9.7v-52.3c0.8,0.8,2.8,1.9,5.9,3.3c7.7,2.3,11.5,4.6,11.5,6.9
		c0,2.8-1,5-3.1,6.5l1.6,1.6h0.2c4.1-3.1,6.1-7.1,6.1-11.9c0-4.5-4-7.9-12.1-10.3c-5.8-2-9.2-3.9-10.1-5.7v-1.9l-0.4-0.4H527.9z"/>
</g>
</svg>
